<svg width="32" height="32" viewBox="0 0 32 32" fill="none" xmlns="http://www.w3.org/2000/svg">
<g clip-path="url(#clip0_1_339)">
<path d="M5.33203 7.99992C5.33203 7.29267 5.61298 6.6144 6.11308 6.1143C6.61318 5.6142 7.29145 5.33325 7.9987 5.33325H23.9987C24.7059 5.33325 25.3842 5.6142 25.8843 6.1143C26.3844 6.6144 26.6654 7.29267 26.6654 7.99992V23.9999C26.6654 24.7072 26.3844 25.3854 25.8843 25.8855C25.3842 26.3856 24.7059 26.6666 23.9987 26.6666H7.9987C7.29145 26.6666 6.61318 26.3856 6.11308 25.8855C5.61298 25.3854 5.33203 24.7072 5.33203 23.9999V7.99992Z" stroke="#6534C9" stroke-width="1.5" stroke-linecap="round" stroke-linejoin="round"/>
<path d="M15.9987 5.33325V8.66659C15.9987 8.8434 15.9285 9.01297 15.8034 9.13799C15.6784 9.26301 15.5088 9.33325 15.332 9.33325C14.8016 9.33325 14.2929 9.54397 13.9178 9.91904C13.5427 10.2941 13.332 10.8028 13.332 11.3333C13.332 11.8637 13.5427 12.3724 13.9178 12.7475C14.2929 13.1225 14.8016 13.3333 15.332 13.3333C15.5088 13.3333 15.6784 13.4035 15.8034 13.5285C15.9285 13.6535 15.9987 13.8231 15.9987 13.9999V15.9999" stroke="#6534C9" stroke-width="1.5" stroke-linecap="round" stroke-linejoin="round"/>
<path d="M16 16V18C16 18.1768 16.0702 18.3464 16.1953 18.4714C16.3203 18.5964 16.4899 18.6667 16.6667 18.6667C17.1971 18.6667 17.7058 18.8774 18.0809 19.2525C18.456 19.6275 18.6667 20.1362 18.6667 20.6667C18.6667 21.1971 18.456 21.7058 18.0809 22.0809C17.7058 22.456 17.1971 22.6667 16.6667 22.6667C16.4899 22.6667 16.3203 22.7369 16.1953 22.8619C16.0702 22.987 16 23.1565 16 23.3333V26.6667" stroke="#6534C9" stroke-width="1.5" stroke-linecap="round" stroke-linejoin="round"/>
<path d="M26.6667 15.9999H23.3333C23.1565 15.9999 22.987 15.9297 22.8619 15.8047C22.7369 15.6796 22.6667 15.5101 22.6667 15.3333C22.6667 14.8028 22.456 14.2941 22.0809 13.919C21.7058 13.544 21.1971 13.3333 20.6667 13.3333C20.1362 13.3333 19.6275 13.544 19.2525 13.919C18.8774 14.2941 18.6667 14.8028 18.6667 15.3333C18.6667 15.5101 18.5964 15.6796 18.4714 15.8047C18.3464 15.9297 18.1768 15.9999 18 15.9999H16" stroke="#6534C9" stroke-width="1.5" stroke-linecap="round" stroke-linejoin="round"/>
<path d="M15.9987 16H13.9987C13.8219 16 13.6523 16.0702 13.5273 16.1953C13.4023 16.3203 13.332 16.4899 13.332 16.6667C13.332 17.1971 13.1213 17.7058 12.7462 18.0809C12.3712 18.456 11.8625 18.6667 11.332 18.6667C10.8016 18.6667 10.2929 18.456 9.91782 18.0809C9.54274 17.7058 9.33203 17.1971 9.33203 16.6667C9.33203 16.4899 9.26179 16.3203 9.13677 16.1953C9.01174 16.0702 8.84218 16 8.66536 16H5.33203" stroke="#6534C9" stroke-width="1.5" stroke-linecap="round" stroke-linejoin="round"/>
</g>
<defs>
<clipPath id="clip0_1_339">
<rect width="32" height="32" fill="white"/>
</clipPath>
</defs>
</svg>
