<svg width="32" height="32" viewBox="0 0 32 32" fill="none" xmlns="http://www.w3.org/2000/svg">
<path d="M16 28C14.7893 28 13.5862 27.8022 12.3907 27.4067C11.1951 27.0111 10.0564 26.4396 8.97467 25.692L9.93333 24.7333C10.8667 25.3778 11.8444 25.8613 12.8667 26.184C13.8889 26.5067 14.9333 26.6676 16 26.6667C18.9724 26.6667 21.4933 25.632 23.5627 23.5627C25.632 21.4933 26.6667 18.9724 26.6667 16C26.6667 13.0276 25.632 10.5067 23.5627 8.43733C21.4933 6.368 18.9724 5.33333 16 5.33333C13.0276 5.33333 10.5067 6.368 8.43733 8.43733C6.368 10.5067 5.33333 13.0276 5.33333 16H4C4 14.344 4.31556 12.7858 4.94667 11.3253C5.57778 9.86489 6.43422 8.59511 7.516 7.516C8.596 6.43422 9.86578 5.57778 11.3253 4.94667C12.7858 4.31556 14.344 4 16 4C17.656 4 19.2129 4.31556 20.6707 4.94667C22.1284 5.57867 23.3987 6.43644 24.4813 7.52C25.564 8.60267 26.4209 9.87244 27.052 11.3293C27.684 12.7871 28 14.344 28 16C28 17.6516 27.6844 19.2071 27.0533 20.6667C26.4222 22.1262 25.5644 23.3973 24.48 24.48C23.3973 25.5636 22.1276 26.4213 20.6707 27.0533C19.2129 27.6844 17.656 28 16 28ZM5.88933 22.4133L10.6827 17.5947L14.6827 20.928L21.7693 13.8413V18.2813H23.1027V11.5653H16.384V12.8987H20.7747L14.6507 19.072L10.6507 15.7387L5.18267 21.184C5.30711 21.4213 5.41689 21.624 5.512 21.792C5.60622 21.9609 5.732 22.1684 5.88933 22.4147" fill="#6534C9"/>
</svg>
