<svg width="24" height="24" viewBox="0 0 24 24" fill="none" xmlns="http://www.w3.org/2000/svg">
<g clip-path="url(#clip0_1_386)">
<path d="M9.18138 6.11697C7.88739 5.8571 6.54381 6.03115 5.35875 6.61215C4.17368 7.19315 3.21325 8.14869 2.6262 9.33078C2.03915 10.5129 1.85825 11.8555 2.1115 13.1508C2.36476 14.4461 3.03804 15.6218 4.02708 16.4957C5.01612 17.3697 6.26572 17.8931 7.58234 17.985C8.89897 18.0768 10.2092 17.732 11.31 17.0039C12.4108 16.2758 13.2408 15.2051 13.6715 13.9575C14.1022 12.7099 14.1096 11.3551 13.6924 10.103" stroke="white" stroke-width="1.5" stroke-linecap="round" stroke-linejoin="round"/>
<path d="M14.8141 17.8831C16.1094 18.1443 17.4548 17.9705 18.6413 17.3888C19.8278 16.8071 20.7891 15.85 21.3759 14.666C21.9627 13.482 22.1423 12.1374 21.8867 10.8409C21.6311 9.54446 20.9547 8.36862 19.9624 7.49596C18.9701 6.62329 17.7175 6.10261 16.399 6.01475C15.0804 5.92688 13.7698 6.27675 12.6705 7.01003C11.5712 7.74332 10.7447 8.819 10.3193 10.0701C9.89399 11.3212 9.89354 12.6777 10.3181 13.9291" stroke="white" stroke-width="1.5" stroke-linecap="round" stroke-linejoin="round"/>
</g>
<defs>
<clipPath id="clip0_1_386">
<rect width="24" height="24" fill="white"/>
</clipPath>
</defs>
</svg>
