<svg width="24" height="22" viewBox="0 0 24 22" fill="none" xmlns="http://www.w3.org/2000/svg">
<path d="M11.3 17.6916C11.1167 17.5235 11.0207 17.3096 11.012 17.0499C11.0033 16.7902 11.091 16.5763 11.275 16.4082L16.175 11.9166H5C4.71667 11.9166 4.479 11.8286 4.287 11.6526C4.095 11.4766 3.99934 11.259 4 10.9999C4 10.7402 4.096 10.5223 4.288 10.3463C4.48 10.1703 4.71734 10.0826 5 10.0832H16.175L11.275 5.59157C11.0917 5.42351 11.004 5.20962 11.012 4.9499C11.02 4.69018 11.116 4.47629 11.3 4.30824C11.4833 4.14018 11.7167 4.05615 12 4.05615C12.2833 4.05615 12.5167 4.14018 12.7 4.30824L19.3 10.3582C19.4 10.4346 19.471 10.5303 19.513 10.6452C19.555 10.76 19.5757 10.8783 19.575 10.9999C19.575 11.1221 19.5543 11.2367 19.513 11.3437C19.4717 11.4506 19.4007 11.5499 19.3 11.6416L12.7 17.6916C12.5167 17.8596 12.2833 17.9437 12 17.9437C11.7167 17.9437 11.4833 17.8596 11.3 17.6916Z" fill="#40A5D9"/>
</svg>
