<svg width="275" height="14" viewBox="0 0 275 14" fill="none" xmlns="http://www.w3.org/2000/svg">
<g clip-path="url(#clip0_35_662)">
<path d="M253.195 1.72308C247.23 1.4 241.162 1.07692 235.095 0.753846C233.141 0.646154 231.084 0.646154 229.13 0.538462C224.811 0.430769 220.491 0.323077 216.172 0.215385C213.807 0.107692 211.338 0.107692 208.973 0C208.253 0 207.533 0 206.916 0C205.374 0 203.831 0 202.186 0C195.089 0 187.993 0 180.897 0C179.252 0 177.504 0 175.858 0.107692C171.642 0.215385 167.528 0.215385 163.312 0.323077C158.581 0.430769 153.85 0.430769 149.12 0.538462C141.509 0.753846 133.796 0.969231 126.186 1.18462C121.764 1.29231 117.342 1.4 112.919 1.50769C105.309 1.83077 97.699 2.15385 90.0888 2.47692C85.8723 2.69231 81.7586 2.8 77.5421 3.01538C69.6234 3.55385 61.7046 3.98462 53.7859 4.41538C49.5694 4.63077 45.3529 4.84615 41.1364 5.16923C33.3205 5.81538 25.4017 6.56923 17.5858 7.32308C15.9404 7.43077 14.1921 7.64615 12.4438 7.75385C9.15285 8.07692 5.7591 8.61539 2.36534 9.04615C2.15966 9.04615 1.95398 9.15385 1.7483 9.15385C1.33693 9.15385 1.02841 9.36923 0.719887 9.69231C0.205682 10.2308 0 10.8769 0 11.5231C0 12.1692 0.205682 12.8154 0.719887 13.2462C1.13125 13.6769 1.85114 14 2.36534 14C6.47899 13.5692 10.4898 13.0308 14.6034 12.6C18.4085 12.2769 22.2137 11.9538 26.0188 11.6308C30.1324 11.3077 34.2461 10.8769 38.4626 10.5538C40.108 10.4462 41.7535 10.2308 43.5018 10.1231C49.9807 9.8 56.3569 9.36923 62.8359 9.04615C66.8467 8.83077 70.8575 8.61539 74.8683 8.4C76.5137 8.29231 78.1592 8.18462 79.8046 8.07692C86.1808 7.75385 92.5569 7.53846 98.9331 7.21538C102.841 7.10769 106.646 6.89231 110.554 6.78462C111.891 6.78462 113.125 6.67692 114.462 6.67692C121.352 6.46154 128.243 6.35385 135.133 6.13846C138.938 6.03077 142.846 5.92308 146.651 5.81538C147.988 5.81538 149.428 5.70769 150.765 5.70769C157.861 5.6 164.957 5.6 172.156 5.49231C176.578 5.49231 181 5.38462 185.422 5.38462C192.93 5.38462 200.54 5.38462 208.047 5.49231C209.487 5.49231 211.03 5.6 212.47 5.6C216.686 5.70769 220.8 5.81538 225.016 6.03077C228.101 6.13846 231.29 6.24615 234.375 6.35385C236.637 6.46154 238.797 6.56923 241.059 6.67692C247.538 7 254.12 7.43077 260.599 7.86154C262.245 7.96923 263.89 8.07692 265.536 8.18462C267.284 8.29231 269.135 8.4 270.883 8.61539C271.192 8.61539 271.398 8.72308 271.706 8.83077C272.426 8.93846 273.043 8.93846 273.66 8.50769C274.277 8.18462 274.688 7.53846 274.894 6.89231C275.305 5.49231 274.483 3.98462 273.043 3.55385C271.809 3.23077 270.575 3.12308 269.444 2.90769C268.621 2.8 267.798 2.69231 266.975 2.69231C265.33 2.47692 263.684 2.47692 262.142 2.26154C259.262 2.15385 256.177 1.93846 253.195 1.72308Z" fill="#6534C9"/>
</g>
<defs>
<clipPath id="clip0_35_662">
<rect width="275" height="14" fill="white"/>
</clipPath>
</defs>
</svg>
