<svg width="274" height="93" viewBox="0 0 274 93" fill="none" xmlns="http://www.w3.org/2000/svg">
<g clip-path="url(#clip0_35_331)">
<path d="M11.8142 74.3459C15.3965 72.8185 19.1995 72.3477 22.8143 71.8657C24.9039 71.6414 26.8892 71.5849 28.9685 71.5339C31.9045 71.3597 34.8303 71.3587 37.8398 71.5367C43.493 71.697 49.0522 71.8518 54.6951 72.1855C65.8869 72.8472 77.089 73.3357 88.4364 72.9631C100.16 72.6127 111.789 72.2568 123.513 71.9065C134.578 71.5172 145.643 71.128 156.782 71.0909C167.837 70.8749 178.976 70.8379 190.051 70.2753C201.419 69.5561 212.746 69.5301 224.063 69.6775C229.444 69.6478 234.825 69.6182 240.248 68.8953C243.1 68.5421 245.868 68.0101 248.731 67.4837C251.499 66.9517 254.247 66.7664 257.005 66.4077C259.575 66.0379 262.01 66.3558 264.529 66.8525C266.337 66.6116 267.85 64.9618 268.965 62.0711C269.548 60.1924 270.214 58.4926 270.797 56.6139C272.025 51.8167 272.792 46.8183 273.006 41.6133C273.313 36.4138 273.234 31.3653 272.58 26.4569C272.223 24.5226 271.761 22.7561 271.404 20.8218C270.637 17.8198 269.413 16.1821 267.563 15.5509C266.142 15.6408 264.804 15.9096 263.383 15.9995C262.151 16.1005 260.834 16.0227 259.611 15.9504C256.884 15.7891 254.24 15.8067 251.503 15.8188C245.839 15.8318 240.249 16.1969 234.586 16.2099C223.645 16.0848 212.725 15.613 201.838 16.1867C195.966 16.5352 190.094 16.8837 184.232 17.0589C178.935 17.2674 173.553 17.2971 168.266 17.3323C156.939 17.3582 145.592 17.7308 134.245 18.1034C123.085 18.4871 111.832 18.8652 100.673 19.2489C94.5288 19.4074 88.2805 19.7337 82.1366 19.8922C76.557 20.084 71.1021 19.7615 65.543 19.6067C54.2469 19.1127 42.9507 18.6187 31.5931 19.1646C28.7511 19.3444 26.0032 19.5298 23.2348 20.0618C20.9469 20.4483 18.6487 21.0081 16.4343 21.7467C14.7005 22.3399 12.9461 23.2797 11.2858 24.2251C10.3146 24.6894 9.31257 25.6737 8.40465 26.6635C6.56829 28.9899 5.25524 32.0428 4.37144 35.8169C2.43625 43.0072 1.73576 51.6619 1.94319 59.3267C2.05294 63.8552 2.64319 68.2381 3.73442 72.1289C4.32103 73.3811 4.90763 74.6332 5.49424 75.8853C6.89655 77.7075 8.40133 77.7965 9.91455 76.1467C10.3317 75.4757 11.1251 74.8269 11.8142 74.3459Z" fill="#1C1C1C"/>
</g>
<defs>
<clipPath id="clip0_35_331">
<rect width="269.917" height="77" fill="white" transform="translate(4.54492) rotate(3.38386)"/>
</clipPath>
</defs>
</svg>
