<svg width="406" height="124" viewBox="0 0 406 124" fill="none" xmlns="http://www.w3.org/2000/svg">
<path d="M178.5 3.41732C222.584 4.2134 277.389 7.51255 325.5 16.1102C340.548 18.8169 359.557 25.5018 373.333 30.7559C379.48 33.1441 382.376 36.359 387.887 39.5433C391.914 41.9316 395.29 46.4517 397.833 49.7953C403.98 57.7561 401.027 65.3846 391.702 71.2756C386.191 74.7784 375.82 79.6275 369.25 82.0157C350.599 89.0213 329.885 93.9758 309.75 97.6378C293.007 100.663 281.417 102.212 264.25 103.008C262.131 103.167 259 103.496 256.667 103.496C254.917 103.496 253.167 103.496 253.167 104.472C253.167 105.449 253.167 105.449 254.151 105.963C255.634 106.6 257.754 106.282 259.449 106.282C287.426 106.441 314.342 102.301 340.411 95.4548C353.128 92.1112 365.633 88.1308 377.925 83.832C384.284 81.603 390.43 78.2594 395.517 74.5974C406.538 66.7958 408.869 56.4468 402.511 46.0977C399.332 40.6843 394.245 36.3855 388.311 32.7235C377.501 26.1956 365.209 22.056 352.492 18.7125C327.695 12.1846 302.05 8.3634 275.981 5.65672C245.037 2.31318 214.094 0.56179 182.726 0.0841446C145.424 -0.393501 108.122 1.03946 71.6681 7.56733C57.0441 10.1148 43.0559 13.936 30.1274 19.6678C21.6497 23.489 14.0197 27.7878 8.08532 33.838C-1.4521 43.5502 -2.51181 53.7401 4.69424 64.5668C8.72115 70.617 14.4436 75.5527 21.0138 80.0108C38.3931 91.7928 58.7396 99.7536 80.3578 106.122C108.546 114.402 138.006 118.86 167.89 121.566C206.252 125.069 244.613 124.591 282.975 121.407C316.038 118.7 348.677 114.083 380.045 105.167C384.072 104.052 387.887 102.62 391.702 101.187C394.457 100.231 396.152 98.7983 395.093 96.4101C394.245 94.6587 393.058 95.3877 389.667 96.6614C372.568 104.145 351.149 108.94 330.167 112.283C305.581 116.105 278.948 118.333 253.939 119.606C209.431 121.676 164.57 118.78 121.333 110.819C98.0196 106.838 75.2323 101.831 54.25 92.7559C43.4409 88.1386 32.6063 84.4684 23.9167 77.622C20.7375 75.0746 11.8766 67.5919 9.33333 64.5668C1.7034 55.173 2.66008 43.9276 12.8333 36.126C17.92 32.1456 23.7691 27.4346 30.1274 24.4094C44.1156 17.8816 54.8333 15.1339 72.9167 10.7402C97.4167 4.7874 141.834 3.2581 178.5 3.41732Z" fill="#6534C9"/>
</svg>
