<svg width="202" height="171" viewBox="0 0 202 171" fill="none" xmlns="http://www.w3.org/2000/svg">
<path fill-rule="evenodd" clip-rule="evenodd" d="M146.572 19.102C156.371 19.6062 164.16 24.5818 171.949 30.1688C197.494 48.5159 206.037 76.9825 188.533 104.956C161.313 148.336 97.9114 176.727 48.7482 163.624C37.8603 160.737 23.1197 158.192 12.3155 144.09C2.26512 130.978 2.68389 115.39 7.29032 100.959C11.9805 86.1632 21.0259 72.5455 28.2287 63.7919C59.7199 25.6002 122.786 -9.11086 179.822 9.18853C180.995 9.54112 182.167 8.93477 182.502 7.83429C182.837 6.73382 182.251 5.55378 181.162 5.20119C122.451 -13.6317 57.3745 21.8247 24.9619 61.1295C16.0003 72.0446 4.27553 90.2653 0.925394 109.117C-1.33595 122.002 0.25504 135.174 8.96539 146.632C20.4396 161.653 36.1016 164.595 47.6596 167.67C98.4141 181.204 163.992 151.982 192.05 107.179C210.894 77.1132 201.849 46.4875 174.378 26.7668C166.003 20.705 157.46 15.4664 146.823 14.9204C145.65 14.8609 144.646 15.7495 144.646 16.9036C144.562 18.0577 145.483 19.0426 146.572 19.102Z" fill="#6534C9"/>
</svg>
