<svg width="213" height="153" viewBox="0 0 213 153" fill="none" xmlns="http://www.w3.org/2000/svg">
<g clip-path="url(#clip0_35_272)">
<path fill-rule="evenodd" clip-rule="evenodd" d="M104.96 103.26C127.866 106.554 153.528 107.371 177.831 101.891C186.674 99.8983 194.636 96.8191 202.819 93.7093C203.393 93.4917 203.662 93.0423 203.417 92.7067C203.169 92.3717 202.501 92.2773 201.924 92.4972C193.899 95.5464 186.097 98.5776 177.425 100.532C153.467 105.934 128.175 105.08 105.612 101.815L105.725 101.577C106.966 98.9944 105.337 95.8492 102 92.8437C97.2177 88.5351 89.029 84.4585 81.9993 82.6615C78.84 81.8545 75.8908 81.5121 73.5536 81.7527C71.7312 81.9395 70.2347 82.468 69.1637 83.3466C66.8832 85.2196 67.4095 87.6138 69.9273 90.0438C75.1906 95.1273 88.9318 100.586 96.0749 101.841C98.3058 102.232 100.57 102.604 102.863 102.95C102.664 103.406 102.465 103.852 102.243 104.284C101.604 105.513 100.75 106.642 98.8919 107.646C95.9938 109.209 92.3331 110.053 88.5076 110.478C82.5373 111.14 76.1652 110.77 71.4409 110.316C45.1308 107.791 30.513 97.7856 21.6343 86.6903C12.671 75.4837 9.52797 63.161 6.20541 56.1584C6.03571 55.7978 5.40737 55.649 4.80378 55.8228C4.20018 55.9965 3.84938 56.4307 4.02206 56.7907C7.36512 63.8387 10.5494 76.237 19.5752 87.5174C28.6856 98.9091 43.7219 109.158 70.7286 111.752C75.6496 112.224 82.2888 112.595 88.5057 111.906C92.8095 111.428 96.9107 110.442 100.172 108.682C103.098 107.103 104.046 105.293 104.96 103.26ZM103.506 101.501L103.564 101.383C104.649 99.1254 102.99 96.4394 100.071 93.8118C95.4756 89.6715 87.6125 85.7495 80.8532 84.0225C78.5365 83.4294 76.3621 83.0959 74.5083 83.1259C72.9789 83.1518 71.6961 83.4204 70.8658 84.1041C70.0775 84.748 69.8511 85.479 70.007 86.2542C70.1875 87.1648 70.8708 88.1241 71.8866 89.1063C76.945 93.9906 90.1529 99.2325 97.017 100.438C99.1495 100.811 101.313 101.167 103.506 101.501Z" fill="white"/>
<path fill-rule="evenodd" clip-rule="evenodd" d="M205.292 91.0374C205.248 91.3535 204.986 91.7885 204.696 92.255C204.008 93.3666 202.966 94.6067 202.509 95.2C202.216 95.582 202.431 95.9892 202.984 96.1119C203.54 96.2342 204.226 96.0247 204.519 95.6427C205.078 94.9157 206.462 93.2619 207.134 91.9774C207.494 91.2883 207.636 90.6859 207.51 90.2948C207.297 89.6282 206.344 89.3607 204.611 89.7015C202.561 90.1054 198.859 91.4327 195.524 91.2492C194.92 91.2151 194.296 91.5135 194.138 91.9108C193.977 92.3105 194.338 92.6609 194.946 92.6944C198.125 92.8683 201.614 91.8744 203.979 91.2943C204.429 91.1845 204.97 91.0901 205.292 91.0374Z" fill="white"/>
</g>
<defs>
<clipPath id="clip0_35_272">
<rect width="194.507" height="119.845" fill="white" transform="translate(0 34.709) rotate(-10.2793)"/>
</clipPath>
</defs>
</svg>
