<svg width="288" height="148" viewBox="0 0 288 148" fill="none" xmlns="http://www.w3.org/2000/svg">
<path d="M246.068 25.9253C248.853 27.4068 251.289 28.7031 253.725 29.9994C263.819 35.555 273.042 42.5921 280.003 52.4069C289.574 65.5551 290.618 80.37 282.787 94.9997C278.785 102.592 273.216 108.518 266.777 113.704C254.073 123.704 239.803 130 224.837 135C202.91 142.222 180.461 146.111 157.664 147.407C132.953 148.889 108.415 147.593 83.8781 143.518C66.1277 140.741 48.5513 136.296 32.019 128.148C25.5801 125 19.1413 120.926 13.5725 116.111C-0.87149 103.333 -4.00392 83.5182 5.21935 65.9255C9.74397 57.2218 16.1828 49.9995 23.3178 43.7032C40.3722 28.7031 60.0369 19.2586 80.9197 12.4067C109.634 2.96222 138.87 -0.926686 168.802 0.184431C188.64 0.925176 208.479 2.96222 227.622 8.88818C233.365 10.5549 238.759 13.1475 244.328 15.3697C245.72 15.9253 246.938 16.8512 248.157 17.7771C251.289 20.3697 251.115 22.592 247.635 24.9994C247.287 25.3697 246.764 25.5549 246.068 25.9253ZM162 8.5C162 8.31481 161.5 7.68519 161.5 7.5C160.456 7.5 159.544 6 158.5 6C134.311 6.18519 110.819 7.96225 87.5 15.3697C67.3132 21.666 46.637 29.4438 30.1048 43.7032C23.4918 49.4439 14.8506 57.9625 10.5 65.9255C2.4949 80.7404 2.97028 100.13 15.5 110.5C20.1986 114.389 24.71 118.907 30.1048 121.5C44.7228 128.722 61.3379 134.537 77 137.5C99.6231 141.759 124.252 144.074 147.049 143.518C173.848 142.778 203.093 137.259 228.5 128C240.508 123.556 254.233 116.963 264.5 109C270.765 104 276.523 96.5926 280.003 89C283.832 80.4814 283.025 69.8334 278.5 61.5C276.76 58.3518 272.262 52.5926 270 50C262.517 41.4814 256.162 36.6297 246.068 32C233.539 26.2592 218.4 14.9993 205 12.2215C187.25 8.33262 172.5 13.8882 154.5 16.5C153.5 16.5 153.5 16.5 150.5 17C148.527 17.3288 146.848 17.6111 146.5 16.5C146.152 15.3889 146.179 14.8141 147.049 13.8882C148.093 12.9623 149.659 12.5919 151.051 12.2215C154.358 10.9252 158.694 9.24074 162 8.5Z" fill="#1C1C1C"/>
</svg>
