<svg width="336" height="133" viewBox="0 0 336 133" fill="none" xmlns="http://www.w3.org/2000/svg">
<path fill-rule="evenodd" clip-rule="evenodd" d="M245.015 28.4272C260.932 29.8243 273.385 33.8981 285.811 38.3678C326.563 53.0425 339.221 72.4143 309.532 88.6208C263.37 113.745 159.009 125.208 79.6123 111.35C62.0281 108.29 38.1625 105.031 21.2025 94.7164C5.42543 85.1255 6.78473 75.0749 14.9052 66.2309C23.1777 57.1596 38.4829 49.3273 50.5795 44.4444C103.463 23.1473 207.554 7.55446 299.53 25.6387C301.422 25.9952 303.355 25.7305 303.948 25.0543C304.541 24.3781 303.638 23.5497 301.882 23.2024C207.205 4.58959 99.8125 20.4457 45.3818 42.363C30.3304 48.4539 10.4667 58.9748 4.19736 70.8197C-0.0414013 78.9184 1.97338 87.6236 15.6427 95.9967C33.6526 106.98 58.9997 110.597 77.6655 113.851C159.632 128.162 267.569 116.4 315.155 90.4453C347.115 73.0296 333.735 52.2045 289.91 36.4297C276.551 31.5883 262.883 27.2618 245.606 25.7461C243.701 25.5794 242.028 26.0452 241.978 26.7928C241.791 27.5311 243.247 28.2697 245.015 28.4272Z" fill="#6534C9"/>
</svg>
