<svg width="568" height="30" viewBox="0 0 568 30" fill="none" xmlns="http://www.w3.org/2000/svg">
<g clip-path="url(#clip0_35_93)">
<path d="M567.447 14.3192C564.564 14.1413 561.92 14.0881 559.034 14.0301C556.149 13.972 553.507 13.7989 550.624 13.621C544.377 13.2556 538.374 12.7751 532.127 12.4096C520.356 11.6932 508.343 10.972 496.564 10.6151C485.75 10.1577 474.692 9.81527 463.872 9.59755C460.987 9.5395 458.102 9.48144 455.457 9.42822C444.635 9.33034 433.816 9.11262 422.993 9.01475C397.741 8.86626 372.247 8.71293 346.989 8.80411C322.212 8.90497 297.435 9.00584 272.896 9.23138C260.867 9.34898 248.598 9.46175 236.569 9.57936C223.333 9.91245 210.102 10.0059 197.108 10.224C169.918 10.7558 142.969 11.1726 115.778 11.7045C92.1965 12.189 68.8477 13.0379 45.4916 14.2464C30.5605 15.1448 15.3865 16.1582 0.452958 17.1765C17.5118 18.1192 33.845 16.5962 51.154 17.0644C62.4544 17.2918 72.5958 16.9617 83.6582 17.0644C90.8737 17.0897 95.131 17.1541 102.589 17.0644C107.16 17.0365 113.973 17.217 118.306 17.0644C130.099 16.7023 144.017 16.4756 155.811 16.1135C169.528 15.7901 186.028 15.7633 199.745 15.4399C213.702 15.1213 226.864 15.3052 240.822 14.9866C253.334 14.7588 267.003 14.8809 279.755 14.6579C292.027 14.4253 304.634 14.7707 316.903 14.6579C329.413 14.55 341.184 13.6033 353.694 13.4953C366.444 13.3922 379.88 13.4786 392.627 13.4953C415.719 13.4804 437.169 13.5031 460.494 13.8525C473.477 14.1138 485.367 14.6364 498.356 14.6579C511.104 14.6747 523.642 15.7156 536.152 15.6077C541.204 15.5894 546.496 15.576 551.55 15.438C553.956 15.3665 556.604 15.2999 559.013 15.1086C561.181 14.9125 563.353 14.5965 565.519 14.5202C566.243 14.4149 566.726 14.3047 567.447 14.3192Z" fill="#6534C9"/>
</g>
<defs>
<clipPath id="clip0_35_93">
<rect width="566.822" height="17.8595" fill="white" transform="translate(0.792969 0.279297) rotate(1.15277)"/>
</clipPath>
</defs>
</svg>
